<svg width="80" height="80" viewBox="0 0 80 80" fill="none" xmlns="http://www.w3.org/2000/svg">
<rect width="80" height="80" rx="40" fill="white"/>
<path d="M26.4565 46.6752L29.0884 49.7029L47.2546 33.9113L49.8865 36.939L52.9142 34.3071L50.2823 31.2794L53.31 28.6474L50.678 25.6197L47.6503 28.2517L45.0184 25.224L41.9907 27.8559L44.6226 30.8836L26.4565 46.6752ZM36.3311 27.4601L39.3588 24.8282L41.9907 27.8559L38.963 30.4878L36.3311 27.4601ZM36.3311 27.4601L33.3034 30.0921L30.6714 27.0644L33.6991 24.4324L36.3311 27.4601ZM49.4908 42.5986L52.5185 39.9667L49.8865 36.939L46.8588 39.5709L49.4908 42.5986ZM49.4908 42.5986L46.4631 45.2306L49.095 48.2583L52.1227 45.6263L49.4908 42.5986Z" fill="black"/>
</svg>
