<svg width="19" height="130" viewBox="0 0 19 130" fill="none" xmlns="http://www.w3.org/2000/svg">
<rect width="19" height="130" rx="3" fill="white"/>
<rect x="0.230469" y="2.35938" width="1" height="19" transform="rotate(-74 0.230469 2.35938)" fill="black"/>
<rect x="0.230469" y="7.35938" width="1" height="19" transform="rotate(-74 0.230469 7.35938)" fill="black"/>
<rect x="0.230469" y="12.3594" width="1" height="19" transform="rotate(-74 0.230469 12.3594)" fill="black"/>
<rect x="0.230469" y="17.3594" width="1" height="19" transform="rotate(-74 0.230469 17.3594)" fill="black"/>
<rect x="0.230469" y="22.3594" width="1" height="19" transform="rotate(-74 0.230469 22.3594)" fill="black"/>
<rect x="0.230469" y="27.3594" width="1" height="19" transform="rotate(-74 0.230469 27.3594)" fill="black"/>
<rect x="0.230469" y="32.3594" width="1" height="19" transform="rotate(-74 0.230469 32.3594)" fill="black"/>
<rect x="0.230469" y="37.3594" width="1" height="19" transform="rotate(-74 0.230469 37.3594)" fill="black"/>
<rect x="0.230469" y="42.3594" width="1" height="19" transform="rotate(-74 0.230469 42.3594)" fill="black"/>
<rect x="0.230469" y="47.3594" width="1" height="19" transform="rotate(-74 0.230469 47.3594)" fill="black"/>
<rect x="0.230469" y="52.3594" width="1" height="19" transform="rotate(-74 0.230469 52.3594)" fill="black"/>
<rect x="0.230469" y="57.3594" width="1" height="19" transform="rotate(-74 0.230469 57.3594)" fill="black"/>
<rect x="0.230469" y="62.3594" width="1" height="19" transform="rotate(-74 0.230469 62.3594)" fill="black"/>
<rect x="0.230469" y="67.3594" width="1" height="19" transform="rotate(-74 0.230469 67.3594)" fill="black"/>
<rect x="0.230469" y="72.3594" width="1" height="19" transform="rotate(-74 0.230469 72.3594)" fill="black"/>
<rect x="0.230469" y="77.3594" width="1" height="19" transform="rotate(-74 0.230469 77.3594)" fill="black"/>
<rect x="0.230469" y="82.3594" width="1" height="19" transform="rotate(-74 0.230469 82.3594)" fill="black"/>
<rect x="0.230469" y="87.3594" width="1" height="19" transform="rotate(-74 0.230469 87.3594)" fill="black"/>
<rect x="0.230469" y="92.3594" width="1" height="19" transform="rotate(-74 0.230469 92.3594)" fill="black"/>
<rect x="0.230469" y="97.3594" width="1" height="19" transform="rotate(-74 0.230469 97.3594)" fill="black"/>
<rect x="0.230469" y="102.359" width="1" height="19" transform="rotate(-74 0.230469 102.359)" fill="black"/>
<rect x="0.230469" y="107.359" width="1" height="19" transform="rotate(-74 0.230469 107.359)" fill="black"/>
<rect x="0.230469" y="112.359" width="1" height="19" transform="rotate(-74 0.230469 112.359)" fill="black"/>
<rect x="0.230469" y="117.359" width="1" height="19" transform="rotate(-74 0.230469 117.359)" fill="black"/>
<rect x="0.230469" y="122.359" width="1" height="19" transform="rotate(-74 0.230469 122.359)" fill="black"/>
</svg>
